<svg width="40" height="33" viewBox="0 0 40 33" fill="none" xmlns="http://www.w3.org/2000/svg">
<path d="M14.9277 18.4874C16.1628 18.4874 17.164 17.5148 17.164 16.315C17.164 15.1152 16.1628 14.1426 14.9277 14.1426C13.6926 14.1426 12.6914 15.1152 12.6914 16.315C12.6914 17.5148 13.6926 18.4874 14.9277 18.4874Z" fill="white"/>
<path d="M24.9941 18.4874C26.2292 18.4874 27.2304 17.5148 27.2304 16.315C27.2304 15.1152 26.2292 14.1426 24.9941 14.1426C23.759 14.1426 22.7578 15.1152 22.7578 16.315C22.7578 17.5148 23.759 18.4874 24.9941 18.4874Z" fill="white"/>
<path d="M21.4274 21.1543H18.4738C17.5877 21.1543 17.0814 22.138 17.6299 22.7939L19.1067 24.6793C19.5287 25.2122 20.3726 25.2122 20.7945 24.6793L22.2713 22.7939C22.8199 22.138 22.3135 21.1543 21.4274 21.1543Z" fill="white"/>
<path d="M39.6238 20.4945C38.358 19.4288 36.9234 18.8549 35.5732 18.568C35.4044 16.9694 34.9824 15.4528 34.3495 14.0592L34.9402 10.6981C35.109 9.63241 35.2356 8.5667 35.2356 7.54197C35.2356 5.82044 34.9824 4.0989 34.5183 2.37736C34.0963 0.942747 32.7883 0 31.2693 0C30.4254 0 29.6237 0.286923 29.033 0.860769C27.303 2.37736 25.8262 4.22187 24.7292 6.27132C21.7755 5.45154 18.2734 5.45154 15.3198 6.27132C14.2227 4.26285 12.7459 2.41835 11.0159 0.901758C10.383 0.327912 9.62352 0.0409891 8.73743 0.0409891C7.21843 0.0409891 5.8682 1.02472 5.48845 2.41835C5.02431 4.0989 4.77115 5.82044 4.77115 7.54197C4.77115 8.68967 4.85554 9.75538 5.06651 10.7801L5.65723 14.1412C5.02431 15.5348 4.60237 17.0514 4.43359 18.65C3.08337 18.9369 1.64875 19.5108 0.382915 20.5765C-0.0812245 20.9864 -0.123419 21.6422 0.256332 22.0931C0.467304 22.339 0.804861 22.462 1.10022 22.462C1.35339 22.462 1.60656 22.38 1.81753 22.216C2.61923 21.5602 3.50531 21.1503 4.3492 20.9044C4.3914 21.6832 4.47578 22.421 4.64456 23.1178C3.80067 23.4457 2.95678 23.8966 2.19728 24.5934C1.73314 25.0033 1.69095 25.6591 2.0707 26.11C2.28167 26.3559 2.61923 26.4789 2.91459 26.4789C3.16775 26.4789 3.42092 26.3969 3.63189 26.233C4.18042 25.7821 4.77115 25.4542 5.40406 25.2082C7.97793 30.5368 14.94 32.6682 19.9612 32.6682C24.9823 32.6682 31.9444 30.5778 34.5605 25.1262C35.1512 25.3722 35.7419 25.7001 36.3327 26.151C36.5436 26.3149 36.7968 26.3969 37.05 26.3969C37.3453 26.3969 37.6829 26.2739 37.8939 26.028C38.3158 25.5771 38.2314 24.8803 37.7673 24.5114C36.9656 23.8556 36.1639 23.4047 35.32 23.0358C35.4888 22.339 35.5732 21.6012 35.6154 20.8224C36.5014 21.0683 37.3875 21.4782 38.147 22.1341C38.358 22.298 38.6112 22.38 38.8643 22.38C39.1597 22.38 39.4973 22.257 39.7082 22.0111C40.1302 21.6012 40.088 20.9044 39.6238 20.4945ZM27.3874 24.0605C27.5562 24.6344 28.1891 24.9623 28.7798 24.7983C28.822 24.7983 30.2988 24.3884 32.1554 24.5114C29.7925 28.6923 24.0962 30.3319 19.9612 30.3319C15.8261 30.3319 10.1299 28.6923 7.80915 24.5524C9.66571 24.3884 11.1425 24.7983 11.1847 24.7983C11.7754 24.9623 12.4084 24.6344 12.5771 24.0605C12.7459 23.4867 12.4084 22.8719 11.8176 22.7079C11.6911 22.6669 9.53913 22.0521 6.96526 22.421C6.83868 21.8061 6.7121 21.1913 6.7121 20.4945C8.1889 20.4945 9.32816 20.7814 9.32816 20.8224C9.91888 20.9864 10.5518 20.6584 10.7206 20.0846C10.8894 19.5108 10.5518 18.8959 9.96107 18.732C9.83449 18.691 8.56866 18.3221 6.83868 18.3221C7.00746 17.0514 7.38721 15.8217 7.93574 14.715C8.06232 14.5101 8.06232 14.2642 8.02013 14.0182L7.38721 10.2882C7.21843 9.42747 7.13404 8.48472 7.13404 7.46C7.13404 5.9434 7.34501 4.42681 7.76696 2.95121C7.89354 2.50033 8.31549 2.29538 8.69524 2.29538C8.94841 2.29538 9.15938 2.37736 9.32816 2.54132C11.1003 4.0989 12.5771 5.98439 13.5054 8.07483C13.7586 8.64868 14.4337 8.89461 15.0244 8.68967C18.0202 7.62395 21.8599 7.62395 24.8557 8.68967C25.4465 8.89461 26.0794 8.60769 26.3747 8.07483C27.3452 5.98439 28.822 4.05791 30.5942 2.50033C30.8052 2.29538 31.0583 2.25439 31.2271 2.25439C31.5647 2.25439 32.0288 2.41835 32.1554 2.91022C32.5773 4.42681 32.7883 5.98439 32.7883 7.46C32.7883 8.36175 32.7039 9.26351 32.5352 10.2472L31.9022 13.9772C31.86 14.2232 31.9022 14.4691 31.9866 14.6741C32.5352 15.7808 32.9149 17.0104 33.0837 18.2811C31.3537 18.2811 30.0457 18.65 29.9613 18.691C29.3706 18.8549 29.033 19.4698 29.2018 20.0436C29.3706 20.6175 30.0035 20.9454 30.5942 20.7814C30.6364 20.7814 31.7335 20.4535 33.2103 20.4535C33.2103 21.1503 33.0837 21.7652 32.9571 22.38C30.3832 22.0111 28.2313 22.6259 28.1047 22.6669C27.514 22.9128 27.1764 23.4867 27.3874 24.0605Z" fill="white"/>
</svg>
