<svg width="40" height="33" viewBox="0 0 40 33" fill="none" xmlns="http://www.w3.org/2000/svg">
<path fill-rule="evenodd" clip-rule="evenodd" d="M19.998 0C16.3687 0 12.8428 1.21474 9.96984 3.43854C7.32087 5.48837 5.36458 8.29575 4.35053 11.4793C3.27111 11.6334 2.26227 12.1311 1.4823 12.9129C0.534011 13.8638 0 15.1548 0 16.4999C0 17.845 0.534011 19.1368 1.4823 20.0873C2.26183 20.8687 3.26979 21.3677 4.34834 21.5209C5.99285 26.6926 10.0825 30.746 15.3025 32.314C19.0909 33.4446 23.1613 33.1711 26.7647 31.5419C30.3682 29.9127 33.267 27.0371 34.9296 23.4408C35.2189 22.8159 35.4667 22.1732 35.6749 21.5183C36.7447 21.3597 37.7443 20.8629 38.5181 20.0873C39.4664 19.1368 40 17.8455 40 16.5003C40 15.1552 39.4664 13.8638 38.5181 12.9134C37.7443 12.1373 36.7447 11.6396 35.6749 11.4824C34.5275 7.87733 32.1749 4.76736 29.002 2.68803C28.8744 2.60438 28.7317 2.5468 28.5819 2.51858C28.4322 2.49035 28.2784 2.49204 28.1293 2.52353C27.9802 2.55502 27.8388 2.61571 27.713 2.70213C27.5873 2.78854 27.4797 2.89899 27.3965 3.02717C27.3132 3.15534 27.2559 3.29873 27.2278 3.44916C27.1997 3.59958 27.2014 3.75409 27.2327 3.90387C27.2641 4.05365 27.3245 4.19575 27.4105 4.32207C27.4965 4.44839 27.6065 4.55645 27.7341 4.64008C30.665 6.56085 32.7791 9.50213 33.6695 12.8953C33.7373 13.1537 33.8914 13.3809 34.106 13.5388C34.3206 13.6967 34.5828 13.7757 34.8485 13.7625C34.8923 13.7608 34.9142 13.7599 34.9493 13.7595C35.6745 13.7608 36.3681 14.0502 36.8802 14.5633C37.3936 15.0777 37.6812 15.7736 37.6812 16.5003C37.6812 17.2271 37.3918 17.923 36.8802 18.4374C36.3681 18.951 35.6745 19.2399 34.9497 19.2412C34.9059 19.2408 34.884 19.2399 34.8489 19.2381C34.5831 19.2249 34.3208 19.3039 34.1061 19.4619C33.8913 19.6199 33.7372 19.8472 33.6695 20.1058C33.4591 20.9136 33.1754 21.7015 32.8256 22.4595C31.3976 25.5475 28.9086 28.0171 25.8124 29.4168C22.7163 30.8165 19.2216 31.0522 15.9662 30.081C11.2435 28.6623 7.60278 24.8842 6.35149 20.1058C6.28387 19.8475 6.13001 19.6204 5.91564 19.4625C5.70127 19.3045 5.4394 19.2253 5.17386 19.2381C5.13002 19.2403 5.09494 19.2412 5.05548 19.2412C4.32948 19.2408 3.63457 18.9505 3.1216 18.4374C2.60863 17.923 2.32102 17.2271 2.32102 16.5003C2.32102 15.7736 2.61039 15.0777 3.1216 14.5633C3.63501 14.0484 4.33124 13.7595 5.05812 13.7595C5.07273 13.7596 5.08735 13.7594 5.10196 13.759C5.1458 13.7581 5.18526 13.7581 5.22472 13.759C5.48525 13.7649 5.74016 13.6825 5.94838 13.5251C6.15661 13.3677 6.30602 13.1445 6.37254 12.8913C7.1661 9.86946 8.93426 7.19553 11.4026 5.28532C13.8679 3.37732 16.8922 2.33919 20.0068 2.33127C21.4882 2.37972 22.7093 3.46585 22.9293 4.93385C23.1486 6.40801 22.2941 7.81214 20.881 8.28694C19.468 8.76174 17.937 8.15921 17.2263 6.84758C17.0791 6.57617 16.8307 6.37461 16.5356 6.28722C16.2405 6.19983 15.9229 6.23377 15.6528 6.38158C15.519 6.45482 15.4008 6.55382 15.3051 6.67292C15.2094 6.79203 15.138 6.92891 15.095 7.07574C15.052 7.22258 15.0381 7.37649 15.0543 7.52869C15.0705 7.68089 15.1164 7.82839 15.1893 7.96278C16.4319 10.254 19.1527 11.3256 21.6167 10.4971C24.0811 9.66906 25.6094 7.1669 25.2232 4.58722C24.8374 2.00754 22.6448 0.0669443 20.0467 0.000441046L19.998 0ZM14.8443 14.6403C14.0187 14.6403 13.344 15.3305 13.344 16.1753C13.344 17.0201 14.0187 17.7111 14.8443 17.7111C15.6699 17.7111 16.3442 17.0201 16.3442 16.1753C16.3442 15.3305 15.6699 14.6403 14.8443 14.6403ZM25.1565 14.6403C24.331 14.6403 23.6558 15.3305 23.6558 16.1753C23.6558 17.0201 24.331 17.7111 25.1565 17.7111C25.9817 17.7111 26.6564 17.0201 26.6564 16.1753C26.6564 15.3305 25.9817 14.6403 25.1565 14.6403ZM14.9412 21.6363C14.6491 21.6519 14.3736 21.7778 14.17 21.9887C14.0651 22.0998 13.983 22.2305 13.9284 22.3735C13.8738 22.5165 13.8479 22.6688 13.8519 22.8219C13.856 22.975 13.8901 23.1257 13.9521 23.2656C14.0142 23.4054 14.1032 23.5316 14.2138 23.6368C15.744 25.1233 17.8361 25.9457 20.0169 25.9457C22.1972 25.9457 24.2898 25.1233 25.8195 23.6368C25.9301 23.5316 26.019 23.4054 26.0811 23.2656C26.1432 23.1257 26.1773 22.975 26.1814 22.8219C26.1854 22.6688 26.1594 22.5165 26.1049 22.3735C26.0503 22.2305 25.9682 22.0998 25.8633 21.9887C25.7585 21.8775 25.6329 21.7882 25.4937 21.7258C25.3545 21.6635 25.2045 21.6292 25.0521 21.6252C24.8997 21.6211 24.7481 21.6472 24.6058 21.702C24.4635 21.7568 24.3333 21.8393 24.2227 21.9447C23.149 22.9885 21.6294 23.5985 20.0331 23.5985C18.4363 23.5985 16.9172 22.9885 15.843 21.9447C15.654 21.7614 15.4087 21.6481 15.1472 21.6231C15.0904 21.6177 15.0333 21.6166 14.9763 21.6196L14.9412 21.6363Z" fill="white"/>
</svg>
