<svg width="41" height="36" viewBox="0 0 41 36" fill="none" xmlns="http://www.w3.org/2000/svg">
<path d="M17.4655 8.77968V1.81576C17.4655 1.40208 17.2935 1.00724 16.9917 0.727269C16.6895 0.447294 16.2868 0.308205 15.877 0.343201C12.4708 0.637534 9.90234 3.46465 9.90234 6.91946V8.77923H12.8299V6.91946C12.8299 5.63131 13.5121 4.47552 14.5379 3.82583V8.77923H17.4655V8.77968Z" fill="white"/>
<path d="M13.5565 20.2182C14.2827 20.2182 14.8769 19.6184 14.8769 18.8852V16.8213C14.8769 16.0882 14.2827 15.4883 13.5565 15.4883H13.3009C12.5747 15.4883 11.9805 16.0882 11.9805 16.8213V18.8852C11.9805 19.6184 12.5747 20.2182 13.3009 20.2182H13.5565Z" fill="white"/>
<path d="M39.0989 9.69748H19.3758H9.26472H8.1265V2.95431C8.1265 2.54063 7.9545 2.14579 7.65272 1.86582C7.35094 1.58629 6.94783 1.4472 6.53806 1.48175C3.13139 1.77608 0.5625 4.6032 0.5625 8.05756V33.5604C0.5625 34.3765 1.21806 35.0379 2.02606 35.0379C2.8345 35.0379 3.48961 34.3761 3.48961 33.5604V8.05756C3.48961 6.74204 4.16383 5.59118 5.1985 4.95003V11.175C5.1985 11.9911 5.85406 12.6525 6.66206 12.6525H31.4558V22.461C31.4558 22.4929 31.4634 22.5229 31.4652 22.5543C31.2358 22.7347 31.0012 22.9106 30.7612 23.0815C26.2825 26.2707 20.3341 27.4068 16.2603 27.4068H11.6243C10.8158 27.4068 10.1607 28.0686 10.1607 28.8843V33.0094C10.0669 33.2041 10.6696 35.1321 11.4781 35.1321H11.6243C12.4327 35.1321 13.0878 34.4703 13.0878 33.6546V30.3622H16.2607C22.1185 30.3622 28.1701 28.5433 32.4487 25.4967C37.4536 21.9338 40.5625 16.446 40.5625 11.1754C40.5625 10.3593 39.9069 9.69748 39.0989 9.69748Z" fill="white"/>
</svg>
