<svg xmlns="http://www.w3.org/2000/svg" xmlns:xlink="http://www.w3.org/1999/xlink" version="1.1" x="0px" y="0px" viewBox="0 0 100 125" style="enable-background:new 0 0 100 100;" xml:space="preserve"><g style="" display="none"><rect x="-370.878" y="-370.879" style="" width="1478.926" height="487.476" display="inline" fill="#D3A7A7"/></g><g><path d="M43.04,30.044V14.523c0-0.922-0.387-1.802-1.066-2.426c-0.68-0.624-1.586-0.934-2.508-0.856   c-7.664,0.656-13.443,6.957-13.443,14.657v4.145h6.587v-4.145c0-2.871,1.535-5.447,3.843-6.895v11.04H43.04z"/><path d="M34.213,55.538c1.634,0,2.971-1.337,2.971-2.971v-4.6c0-1.634-1.337-2.971-2.971-2.971h-0.575   c-1.634,0-2.971,1.337-2.971,2.971v4.6c0,1.634,1.337,2.971,2.971,2.971H34.213z"/><path d="M91.707,32.081H47.33h-22.75h-2.561V17.052c0-0.922-0.387-1.802-1.066-2.426c-0.679-0.623-1.586-0.933-2.508-0.856   C10.78,14.426,5,20.727,5,28.426v56.84c0,1.819,1.475,3.293,3.293,3.293c1.819,0,3.293-1.475,3.293-3.293v-56.84   c0-2.932,1.517-5.497,3.845-6.926v13.874c0,1.819,1.475,3.293,3.293,3.293h55.786v21.861c0,0.071,0.017,0.138,0.021,0.208   c-0.516,0.402-1.044,0.794-1.584,1.175c-10.077,7.108-23.461,9.64-32.627,9.64H29.889c-1.819,0-3.293,1.475-3.293,3.293v9.194   c-0.211,0.434,1.145,4.731,2.964,4.731h0.329c1.819,0,3.293-1.475,3.293-3.293v-7.338h7.139c13.18,0,26.796-4.054,36.423-10.844   C88.005,59.353,95,47.122,95,35.375C95,33.556,93.525,32.081,91.707,32.081z"/></g><text x="0" y="115" fill="#000000" font-size="5px" font-weight="bold" font-family="'Helvetica Neue', Helvetica, Arial-Unicode, Arial, Sans-serif">Created by Oksana Latysheva</text><text x="0" y="120" fill="#000000" font-size="5px" font-weight="bold" font-family="'Helvetica Neue', Helvetica, Arial-Unicode, Arial, Sans-serif">from the Noun Project</text></svg>