<svg width="50" height="41" viewBox="0 0 50 41" fill="none" xmlns="http://www.w3.org/2000/svg">
<path d="M18.6704 23.1068C20.2142 23.1068 21.4658 21.891 21.4658 20.3913C21.4658 18.8916 20.2142 17.6758 18.6704 17.6758C17.1265 17.6758 15.875 18.8916 15.875 20.3913C15.875 21.891 17.1265 23.1068 18.6704 23.1068Z" fill="white"/>
<path d="M31.2368 23.1068C32.7806 23.1068 34.0322 21.891 34.0322 20.3913C34.0322 18.8916 32.7806 17.6758 31.2368 17.6758C29.6929 17.6758 28.4414 18.8916 28.4414 20.3913C28.4414 21.891 29.6929 23.1068 31.2368 23.1068Z" fill="white"/>
<path d="M26.7892 26.4395H23.0972C21.9895 26.4395 21.3566 27.6691 22.0423 28.4889L23.8883 30.8458C24.4157 31.5118 25.4706 31.5118 25.998 30.8458L27.844 28.4889C28.5297 27.6691 27.8968 26.4395 26.7892 26.4395Z" fill="white"/>
<path d="M49.5298 25.6181C47.9475 24.286 46.1542 23.5687 44.4664 23.21C44.2555 21.2118 43.728 19.3161 42.9369 17.574L43.6753 13.3727C43.8863 12.0405 44.0445 10.7084 44.0445 9.42746C44.0445 7.27554 43.728 5.12362 43.1479 2.9717C42.6204 1.17843 40.9854 0 39.0866 0C38.0318 0 37.0297 0.358654 36.2913 1.07596C34.1288 2.9717 32.2828 5.27733 30.9115 7.83914C27.2194 6.81442 22.8417 6.81442 19.1497 7.83914C17.7784 5.32857 15.9324 3.02294 13.7699 1.1272C12.9788 0.40989 12.0294 0.0512364 10.9218 0.0512364C9.02304 0.0512364 7.33526 1.28091 6.86057 3.02294C6.28039 5.12362 5.96393 7.27554 5.96393 9.42746C5.96393 10.8621 6.06942 12.1942 6.33314 13.4751L7.07154 17.6765C6.28039 19.4185 5.75296 21.3143 5.54199 23.3125C3.85421 23.6711 2.06094 24.3884 0.478644 25.7206C-0.101531 26.2329 -0.154274 27.0527 0.320415 27.6163C0.584131 27.9237 1.00608 28.0774 1.37528 28.0774C1.69174 28.0774 2.0082 27.975 2.27191 27.77C3.27403 26.9502 4.38164 26.4379 5.4365 26.1305C5.48925 27.104 5.59473 28.0262 5.8057 28.8972C4.75084 29.3071 3.69598 29.8707 2.7466 30.7417C2.16643 31.2541 2.11368 32.0739 2.58837 32.6375C2.85209 32.9449 3.27403 33.0986 3.64323 33.0986C3.95969 33.0986 4.27615 32.9961 4.53987 32.7912C5.22553 32.2276 5.96393 31.8177 6.75508 31.5103C9.97241 38.171 18.675 40.8353 24.9515 40.8353C31.2279 40.8353 39.9305 38.2222 43.2006 31.4078C43.939 31.7152 44.6774 32.1251 45.4158 32.6887C45.6795 32.8936 45.996 32.9961 46.3125 32.9961C46.6817 32.9961 47.1036 32.8424 47.3673 32.535C47.8948 31.9714 47.7893 31.1004 47.2091 30.6393C46.207 29.8195 45.2049 29.2559 44.15 28.7948C44.361 27.9237 44.4664 27.0015 44.5192 26.028C45.6268 26.3354 46.7344 26.8478 47.6838 27.6676C47.9475 27.8725 48.264 27.975 48.5804 27.975C48.9496 27.975 49.3716 27.8213 49.6353 27.5138C50.1627 27.0015 50.11 26.1305 49.5298 25.6181ZM34.2343 30.0757C34.4452 30.793 35.2364 31.2029 35.9748 30.9979C36.0275 30.9979 37.8736 30.4855 40.1943 30.6393C37.2406 35.8653 30.1203 37.9148 24.9515 37.9148C19.7826 37.9148 12.6623 35.8653 9.76144 30.6905C12.0821 30.4855 13.9282 30.9979 13.9809 30.9979C14.7193 31.2029 15.5104 30.793 15.7214 30.0757C15.9324 29.3584 15.5104 28.5898 14.772 28.3849C14.6138 28.3336 11.9239 27.5651 8.70658 28.0262C8.54835 27.2577 8.39012 26.4891 8.39012 25.6181C10.2361 25.6181 11.6602 25.9768 11.6602 26.028C12.3986 26.2329 13.1897 25.8231 13.4007 25.1057C13.6117 24.3884 13.1897 23.6199 12.4513 23.4149C12.2931 23.3637 10.7108 22.9026 8.54835 22.9026C8.75932 21.3143 9.23401 19.7772 9.91967 18.3938C10.0779 18.1376 10.0779 17.8302 10.0252 17.5228L9.23401 12.8603C9.02304 11.7843 8.91755 10.6059 8.91755 9.32499C8.91755 7.42925 9.18127 5.53351 9.7087 3.68901C9.86693 3.12541 10.3944 2.86923 10.869 2.86923C11.1855 2.86923 11.4492 2.9717 11.6602 3.17665C13.8754 5.12362 15.7214 7.48049 16.8818 10.0935C17.1982 10.8108 18.0421 11.1183 18.7805 10.8621C22.5253 9.52994 27.3249 9.52994 31.0697 10.8621C31.8081 11.1183 32.5992 10.7596 32.9684 10.0935C34.1815 7.48049 36.0275 5.07238 38.2428 3.12541C38.5065 2.86923 38.8229 2.81799 39.0339 2.81799C39.4558 2.81799 40.036 3.02294 40.1943 3.63777C40.7217 5.53351 40.9854 7.48049 40.9854 9.32499C40.9854 10.4522 40.8799 11.5794 40.6689 12.8091L39.8778 17.4715C39.825 17.779 39.8778 18.0864 39.9833 18.3426C40.6689 19.7259 41.1436 21.263 41.3546 22.8513C39.1921 22.8513 37.5571 23.3125 37.4516 23.3637C36.7132 23.5687 36.2913 24.3372 36.5022 25.0545C36.7132 25.7718 37.5043 26.1817 38.2428 25.9768C38.2955 25.9768 39.6668 25.5669 41.5128 25.5669C41.5128 26.4379 41.3546 27.2064 41.1964 27.975C37.979 27.5138 35.2891 28.2824 35.1309 28.3336C34.3925 28.641 33.9706 29.3584 34.2343 30.0757Z" fill="white"/>
</svg>
