<svg width="50" height="42" viewBox="0 0 50 42" fill="none" xmlns="http://www.w3.org/2000/svg">
<path fill-rule="evenodd" clip-rule="evenodd" d="M24.9975 0C20.4609 0 16.0536 1.51843 12.4623 4.29818C9.15108 6.86046 6.70572 10.3697 5.43816 14.3491C4.08888 14.5418 2.82784 15.1639 1.85287 16.1412C0.667514 17.3298 0 18.9435 0 20.6249C0 22.3063 0.667514 23.921 1.85287 25.1091C2.82729 26.0858 4.08724 26.7096 5.43542 26.9012C7.49107 33.3658 12.6031 38.4326 19.1281 40.3925C23.8636 41.8058 28.9516 41.4639 33.4559 39.4274C37.9602 37.3909 41.5838 33.7963 43.662 29.3011C44.0237 28.5198 44.3333 27.7166 44.5936 26.8979C45.9309 26.6997 47.1803 26.0787 48.1476 25.1091C49.333 23.921 50 22.3068 50 20.6254C50 18.944 49.333 17.3298 48.1476 16.1417C47.1803 15.1716 45.9309 14.5495 44.5936 14.353C43.1594 9.84666 40.2187 5.9592 36.2525 3.36003C36.093 3.25548 35.9146 3.1835 35.7274 3.14822C35.5403 3.11294 35.348 3.11505 35.1617 3.15441C34.9753 3.19378 34.7985 3.26964 34.6413 3.37766C34.4841 3.48568 34.3497 3.62374 34.2456 3.78396C34.1415 3.94418 34.0699 4.12342 34.0348 4.31145C33.9996 4.49948 34.0017 4.69262 34.0409 4.87984C34.0801 5.06706 34.1556 5.24469 34.2632 5.40259C34.3707 5.56049 34.5081 5.69556 34.6676 5.80009C38.3312 8.20106 40.9739 11.8777 42.0869 16.1191C42.1716 16.4422 42.3642 16.7262 42.6325 16.9235C42.9008 17.1209 43.2284 17.2196 43.5606 17.2032C43.6154 17.201 43.6428 17.1999 43.6866 17.1993C44.5931 17.201 45.4601 17.5627 46.1002 18.2041C46.7419 18.8471 47.1015 19.717 47.1015 20.6254C47.1015 21.5338 46.7398 22.4037 46.1002 23.0468C45.4601 23.6887 44.5931 24.0499 43.6872 24.0515C43.6324 24.051 43.605 24.0499 43.5611 24.0477C43.2288 24.0311 42.901 24.1299 42.6326 24.3274C42.3642 24.5248 42.1715 24.809 42.0869 25.1323C41.8238 26.142 41.4693 27.1269 41.032 28.0744C39.247 31.9344 36.1358 35.0213 32.2655 36.771C28.3953 38.5207 24.027 38.8152 19.9578 37.6012C14.0544 35.8279 9.50347 31.1052 7.93936 25.1323C7.85484 24.8094 7.66251 24.5255 7.39454 24.3281C7.12658 24.1306 6.79925 24.0317 6.46733 24.0477C6.41252 24.0504 6.36868 24.0515 6.31936 24.0515C5.41185 24.051 4.54321 23.6881 3.902 23.0468C3.26079 22.4037 2.90128 21.5338 2.90128 20.6254C2.90128 19.717 3.26298 18.8471 3.902 18.2041C4.54376 17.5605 5.41405 17.1993 6.32264 17.1993C6.34091 17.1995 6.35918 17.1993 6.37745 17.1988C6.43225 17.1977 6.48158 17.1977 6.5309 17.1988C6.85656 17.2061 7.1752 17.1031 7.43548 16.9064C7.69576 16.7096 7.88252 16.4306 7.96567 16.1142C8.95763 12.3368 11.1678 8.99441 14.2533 6.60665C17.3349 4.22165 21.1152 2.92399 25.0085 2.91408C26.8603 2.97465 28.3866 4.33231 28.6617 6.16731C28.9357 8.01002 27.8676 9.76518 26.1012 10.3587C24.335 10.9522 22.4212 10.199 21.5328 8.55947C21.3489 8.22022 21.0383 7.96826 20.6695 7.85903C20.3006 7.74979 19.9037 7.79222 19.566 7.97698C19.3987 8.06853 19.2511 8.19227 19.1314 8.34116C19.0118 8.49004 18.9225 8.66114 18.8687 8.84468C18.815 9.02822 18.7977 9.22061 18.8179 9.41086C18.8381 9.60111 18.8955 9.78549 18.9867 9.95347C20.5398 12.8175 23.9409 14.157 27.0208 13.1214C30.1014 12.0863 32.0118 8.95862 31.529 5.73402C31.0467 2.50943 28.306 0.0836804 25.0584 0.000551308L24.9975 0ZM18.5554 18.3004C17.5234 18.3004 16.68 19.1631 16.68 20.2191C16.68 21.2751 17.5234 22.1389 18.5554 22.1389C19.5873 22.1389 20.4302 21.2751 20.4302 20.2191C20.4302 19.1631 19.5873 18.3004 18.5554 18.3004ZM31.4457 18.3004C30.4138 18.3004 29.5698 19.1631 29.5698 20.2191C29.5698 21.2751 30.4138 22.1389 31.4457 22.1389C32.4771 22.1389 33.3205 21.2751 33.3205 20.2191C33.3205 19.1631 32.4771 18.3004 31.4457 18.3004ZM18.6765 27.0454C18.3114 27.0649 17.967 27.2222 17.7125 27.4859C17.5813 27.6247 17.4787 27.7882 17.4105 27.9669C17.3423 28.1456 17.3098 28.3361 17.3149 28.5274C17.32 28.7187 17.3626 28.9072 17.4402 29.0819C17.5178 29.2567 17.629 29.4144 17.7673 29.5461C19.6799 31.4042 22.2951 32.4321 25.0211 32.4321C27.7465 32.4321 30.3623 31.4042 32.2743 29.5461C32.4126 29.4144 32.5238 29.2567 32.6014 29.0819C32.679 28.9072 32.7216 28.7187 32.7267 28.5274C32.7318 28.3361 32.6993 28.1456 32.6311 27.9669C32.5629 27.7882 32.4603 27.6247 32.3291 27.4859C32.1981 27.3469 32.0411 27.2353 31.8671 27.1573C31.6931 27.0793 31.5056 27.0366 31.3151 27.0314C31.1247 27.0263 30.9351 27.059 30.7572 27.1275C30.5793 27.196 30.4166 27.2991 30.2784 27.4308C28.9363 28.7356 27.0367 29.4982 25.0414 29.4982C23.0454 29.4982 21.1464 28.7356 19.8038 27.4308C19.5675 27.2018 19.2609 27.0601 18.9341 27.0289C18.863 27.0222 18.7916 27.0207 18.7203 27.0245L18.6765 27.0454Z" fill="white"/>
</svg>
