<svg width="50" height="44" viewBox="0 0 50 44" fill="none" xmlns="http://www.w3.org/2000/svg">
<path d="M21.1414 10.5522V1.84734C21.1414 1.33024 20.9264 0.836691 20.5492 0.486723C20.1714 0.136755 19.6681 -0.0371075 19.1558 0.0066385C14.8981 0.374554 11.6875 3.90845 11.6875 8.22697V10.5517H15.3469V8.22697C15.3469 6.61678 16.1997 5.17204 17.4819 4.35993V10.5517H21.1414V10.5522Z" fill="white"/>
<path d="M16.2317 24.8519C17.1395 24.8519 17.8823 24.102 17.8823 23.1856V20.6057C17.8823 19.6893 17.1395 18.9395 16.2317 18.9395H15.9123C15.0045 18.9395 14.2617 19.6893 14.2617 20.6057V23.1856C14.2617 24.102 15.0045 24.8519 15.9123 24.8519H16.2317Z" fill="white"/>
<path d="M48.1706 11.7019H23.5167H10.8778H9.455V3.27297C9.455 2.75586 9.24 2.26232 8.86278 1.91235C8.48555 1.56294 7.98167 1.38908 7.46944 1.43227C3.21111 1.80018 0 5.33408 0 9.65204V41.5306C0 42.5507 0.819445 43.3774 1.82944 43.3774C2.84 43.3774 3.65889 42.5502 3.65889 41.5306V9.65204C3.65889 8.00763 4.50167 6.56906 5.795 5.76761V13.5488C5.795 14.569 6.61445 15.3957 7.62444 15.3957H38.6167V27.6563C38.6167 27.6962 38.6261 27.7337 38.6283 27.773C38.3417 27.9984 38.0483 28.2183 37.7483 28.432C32.15 32.4185 24.7144 33.8385 19.6222 33.8385H13.8272C12.8167 33.8385 11.9978 34.6658 11.9978 35.6854V40.8418C11.8806 41.0852 12.6339 43.4952 13.6444 43.4952H13.8272C14.8378 43.4952 15.6567 42.668 15.6567 41.6483V37.5328H19.6228C26.945 37.5328 34.5094 35.2592 39.8578 31.451C46.1139 26.9973 50 20.1376 50 13.5494C50 12.5292 49.1806 11.7019 48.1706 11.7019Z" fill="white"/>
</svg>
