<svg xmlns:inkscape="http://www.inkscape.org/namespaces/inkscape" xmlns:sodipodi="http://sodipodi.sourceforge.net/DTD/sodipodi-0.dtd" xmlns="http://www.w3.org/2000/svg" xmlns:svg="http://www.w3.org/2000/svg" xmlns:rdf="http://www.w3.org/1999/02/22-rdf-syntax-ns#" xmlns:cc="http://creativecommons.org/ns#" xmlns:dc="http://purl.org/dc/elements/1.1/" viewBox="0 0 16.933333 21.1666675" version="1.1" x="0px" y="0px"><g><path style="color:#000000;paint-order:fill markers stroke;" d="m 5.3550017,4.7204511 c -0.82779,0 -1.63199,0.275797 -2.28728,0.780691 -0.60419,0.465395 -1.05039,1.102788 -1.28168,1.82558 -0.2462,0.035 -0.4763,0.147999 -0.6542,0.325497 -0.21629003,0.215897 -0.33809003,0.508994 -0.33809003,0.814391 a 0.26460732,0.26460732 0 0 0 0,10e-5 c 0,0.305397 0.1218,0.598593 0.33809003,0.814391 0.1778,0.177398 0.4077,0.290697 0.6537,0.325496 0.37509,1.1741889 1.30788,2.0944789 2.49847,2.4504749 a 0.26460732,0.26460732 0 0 0 4e-4,10e-5 c 0.86409,0.256697 1.79208,0.194498 2.61397,-0.175398 0.82189,-0.369896 1.48308,-1.022789 1.86228,-1.83928 a 0.26460732,0.26460732 0 0 0 10e-5,-10e-5 c 0.066,-0.1418999 0.1224,-0.2876979 0.1699,-0.4363969 0.244,-0.036 0.47199,-0.148798 0.64849,-0.324896 0.2163,-0.215798 0.338,-0.508994 0.338,-0.814391 0,-0.305397 -0.1217,-0.598594 -0.338,-0.814391 -0.1765,-0.176198 -0.40449,-0.289197 -0.64849,-0.324897 -0.2617,-0.818491 -0.79829,-1.524583 -1.52199,-1.996678 a 0.26458087,0.26458087 0 0 0 -0.36619,0.077 0.26458087,0.26458087 0 0 0 0.077,0.366196 c 0.66849,0.436095 1.15069,1.103888 1.35378,1.87428 a 0.26460732,0.26460732 0 0 0 0.2689,0.196898 c 0.01,-4e-4 0.015,-6e-4 0.023,-7e-4 0.1654,3e-4 0.3236,0.066 0.4404,0.182498 0.1171,0.116798 0.1827,0.274797 0.1827,0.439795 0,0.164998 -0.066,0.322996 -0.1827,0.439795 -0.1168,0.116599 -0.275,0.182198 -0.4403,0.182498 -0.01,-10e-5 -0.015,-3e-4 -0.023,-7e-4 a 0.26460732,0.26460732 0 0 0 -0.269,0.196998 c -0.048,0.183398 -0.11269,0.362296 -0.19249,0.534394 -0.3257,0.7010939 -0.8934,1.2617879 -1.59959,1.5795839 -0.70619,0.317797 -1.50328,0.371296 -2.24577,0.150799 -1.07719,-0.322097 -1.90758,-1.179888 -2.19298,-2.2647769 a 0.26460732,0.26460732 0 0 0 -0.2686,-0.196999 c -0.01,5e-4 -0.018,7e-4 -0.027,7e-4 -0.16559,-10e-5 -0.32409,-0.066 -0.44109,-0.182498 -0.117,-0.116799 -0.1826,-0.274797 -0.1826,-0.439795 v 0 0 c 0,-0.164998 0.066,-0.322997 0.1826,-0.439795 0.1171,-0.116899 0.2759,-0.182498 0.44169,-0.182498 a 0.26460732,0.26460732 0 0 0 0.01,-1e-4 c 0.01,-2e-4 0.019,-2e-4 0.028,0 a 0.26460732,0.26460732 0 0 0 0.2618,-0.196998 c 0.181,-0.686093 0.58429,-1.293186 1.14729,-1.726882 0.56229,-0.433195 1.25208,-0.668892 1.96248,-0.670692 0.33789,0.011 0.61639,0.257597 0.66659,0.590893 0.05,0.334697 -0.1449,0.653493 -0.4672,0.761292 -0.32229,0.107799 -0.67149,-0.029 -0.83359,-0.326796 a 0.26458087,0.26458087 0 0 0 -0.35889,-0.105799 0.26458087,0.26458087 0 0 0 -0.1057,0.358996 c 0.2834,0.520194 0.90399,0.763492 1.46598,0.575394 0.5621,-0.187998 0.91069,-0.756092 0.82259,-1.341786 -0.088,-0.585693 -0.58809,-1.026289 -1.18068,-1.041388 a 0.26458087,0.26458087 0 0 0 0,2e-4 0.26458087,0.26458087 0 0 0 0,-3e-4 z m 6.2222303,0 c -0.92849,0 -1.8236803,0.346596 -2.5121703,0.968389 a 0.26458087,0.26458087 0 0 0 -0.019,0.373696 0.26458087,0.26458087 0 0 0 0.37369,0.019 c 0.5904003,-0.533094 1.3574903,-0.829391 2.1537803,-0.831891 0.3388,0.01 0.61819,0.257097 0.66849,0.590993 0.05,0.334797 -0.1449,0.653493 -0.46729,0.761292 -0.3223,0.107799 -0.6714,-0.029 -0.83349,-0.326796 a 0.26458087,0.26458087 0 0 0 -0.3589,-0.105799 0.26458087,0.26458087 0 0 0 -0.1057,0.358996 c 0.2834,0.520194 0.90389,0.763492 1.46599,0.575394 0.56209,-0.187998 0.91069,-0.756092 0.82259,-1.341786 -0.088,-0.585693 -0.5881,-1.026289 -1.18069,-1.041388 v 0 a 0.26458087,0.26458087 0 0 0 0,2e-4 0.26458087,0.26458087 0 0 0 0,-3e-4 z m 1.88388,0.567693 a 0.26458087,0.26458087 0 0 0 -0.1964,0.118799 0.26458087,0.26458087 0 0 0 0.077,0.366196 c 0.66849,0.436095 1.15079,1.103888 1.35379,1.87438 a 0.26460732,0.26460732 0 0 0 0.26889,0.196798 c 0.01,-4e-4 0.015,-6e-4 0.023,-7e-4 0.1654,4e-4 0.3236,0.066 0.4404,0.182498 0.1171,0.116798 0.1826,0.274797 0.1827,0.439895 -1e-4,0.164898 -0.066,0.322896 -0.1827,0.439795 -0.1168,0.116499 -0.275,0.182098 -0.4404,0.182398 -0.01,-10e-5 -0.015,-3e-4 -0.023,-7e-4 a 0.26460732,0.26460732 0 0 0 -0.26889,0.196998 c -0.048,0.183398 -0.1127,0.362196 -0.1925,0.534294 -0.3257,0.7010939 -0.89339,1.2618879 -1.59959,1.5796839 -0.70619,0.317797 -1.50328,0.371296 -2.24587,0.150799 -0.4603,-0.137699 -0.8839903,-0.376296 -1.2399903,-0.698293 a 0.26458087,0.26458087 0 0 0 -0.37369,0.019 0.26458087,0.26458087 0 0 0 0.019,0.373796 c 0.41449,0.374896 0.90769,0.652593 1.4435803,0.812791 a 0.26460732,0.26460732 0 0 0 4e-4,2e-4 c 0.86409,0.256698 1.79198,0.194398 2.61387,-0.175498 0.82189,-0.369796 1.48319,-1.022789 1.86238,-1.83928 a 0.26460732,0.26460732 0 0 0 1e-4,-1e-4 c 0.066,-0.1417999 0.1224,-0.2875979 0.1699,-0.4363959 0.244,-0.036 0.4719,-0.148699 0.64849,-0.324897 0.2163,-0.215797 0.338,-0.508894 0.338,-0.814391 0,-0.305397 -0.1217,-0.598493 -0.338,-0.814291 -0.17659,-0.176198 -0.40449,-0.289297 -0.64849,-0.324897 -0.2618,-0.818491 -0.79829,-1.524583 -1.52198,-1.996778 a 0.26458087,0.26458087 0 0 0 -0.1697,-0.042 z M 1.9471317,7.3152221 c -9e-4,0 0,0 0,0 0,0 0,0 0,0 z m 2.23238,0.729192 c -0.1883,0 -0.3422,0.156699 -0.3422,0.348497 0,0.191798 0.1539,0.348696 0.3422,0.348696 0.1883,0 0.3421,-0.156898 0.3421,-0.348696 0,-0.191798 -0.1538,-0.348497 -0.3421,-0.348497 z m 2.35207,0 c -0.18829,0 -0.34229,0.156699 -0.34229,0.348497 0,0.191798 0.154,0.348696 0.34229,0.348696 0.1882,0 0.3421,-0.156898 0.3421,-0.348696 0,-0.191798 -0.1539,-0.348497 -0.3421,-0.348497 z m 6.2221403,0 c -0.1882,0 -0.3422,0.156699 -0.3422,0.348497 0,0.191798 0.154,0.348696 0.3422,0.348696 0.18829,0 0.34219,-0.156898 0.34219,-0.348696 0,-0.191798 -0.1539,-0.348497 -0.34219,-0.348497 z m -8.5521103,1.588383 a 0.26458087,0.26458087 0 0 0 -0.1759,0.08 0.26458087,0.26458087 0 0 0 0.01,0.3741969 c 0.349,0.337497 0.82619,0.524195 1.32359,0.524195 0.49729,0 0.97459,-0.186698 1.32348,-0.524195 a 0.26458087,0.26458087 0 0 0 0.01,-0.3741969 0.26458087,0.26458087 0 0 0 -0.37419,-0.01 c -0.2449,0.236998 -0.5915,0.3754969 -0.95559,0.3754969 -0.3642,0 -0.7107,-0.1384989 -0.95569,-0.3754969 a 0.26458087,0.26458087 0 0 0 -0.1587,-0.073 0.26458087,0.26458087 0 0 0 -0.039,-8e-4 z m 6.2222303,0 a 0.26458087,0.26458087 0 0 0 -0.1759,0.08 0.26458087,0.26458087 0 0 0 0.01,0.3741969 c 0.349,0.337497 0.82619,0.524195 1.32359,0.524195 0.49729,0 0.97459,-0.186698 1.32348,-0.524195 a 0.26458087,0.26458087 0 0 0 0.01,-0.3741969 0.26458087,0.26458087 0 0 0 -0.37409,-0.01 c -0.2449,0.236998 -0.59149,0.3754969 -0.95559,0.3754969 -0.3642,0 -0.71079,-0.1384989 -0.95569,-0.3754969 a 0.26458087,0.26458087 0 0 0 -0.1587,-0.073 0.26458087,0.26458087 0 0 0 -0.039,-8e-4 z" fill="#000000" fill-rule="evenodd" stroke-width="0.00216627" stroke-linecap="round" stroke-linejoin="round"/></g><text x="0" y="31.933334" fill="#000000" font-size="5px" font-weight="bold" font-family="'Helvetica Neue', Helvetica, Arial-Unicode, Arial, Sans-serif">Created by Alzam</text><text x="0" y="36.933334" fill="#000000" font-size="5px" font-weight="bold" font-family="'Helvetica Neue', Helvetica, Arial-Unicode, Arial, Sans-serif">from the Noun Project</text></svg>