<svg width="200" height="51" viewBox="0 0 200 51" fill="none" xmlns="http://www.w3.org/2000/svg">
<path d="M4.71185 44.3365C4.63905 44.884 5.02384 45.3868 5.57131 45.4596C6.11877 45.5324 6.6216 45.1476 6.6944 44.6002L4.71185 44.3365ZM10.2273 10.4462L9.30178 10.0676L9.25304 10.1868L9.23606 10.3144L10.2273 10.4462ZM17.828 7.91269L18.6279 7.31259L18.5334 7.18657L18.4047 7.09572L17.828 7.91269ZM31.0387 10.4462L31.2595 11.4216L31.9188 11.2723L32.0261 10.6049L31.0387 10.4462ZM53.1169 13.3412L52.9357 14.3247L53.6961 14.4647L54.0231 13.7641L53.1169 13.3412ZM69.0421 1.03569L69.0421 2.03569L69.0421 2.03569L69.0421 1.03569ZM20.7235 11.5317L19.9235 12.1317L20.2235 12.5317H20.7235V11.5317ZM85.8722 18.5893L84.8802 18.7159L85.002 19.67L85.9601 19.5854L85.8722 18.5893ZM97.2732 24.5615L98.2476 24.7864L98.2476 24.7864L97.2732 24.5615ZM84.4244 48.9923L83.5053 49.3862L83.6025 49.6129L83.7939 49.7684L84.4244 48.9923ZM69.0421 27.1903C69.5944 27.1903 70.0421 26.7425 70.0421 26.1903C70.0421 25.638 69.5944 25.1903 69.0421 25.1903V27.1903ZM62.8607 30.5365C62.6624 31.0519 62.9196 31.6305 63.4351 31.8288C63.9505 32.027 64.5291 31.7699 64.7274 31.2544L62.8607 30.5365ZM83.7006 41.7233L83.8952 42.7042L83.9561 42.6921L84.0151 42.6725L83.7006 41.7233ZM94.9568 31.2571L94.024 30.8968L94.9568 31.2571ZM23.349 21.3836C23.3931 20.833 22.9825 20.351 22.432 20.307C21.8814 20.263 21.3995 20.6736 21.3554 21.2241L23.349 21.3836ZM27.4194 23.1135L28.1542 22.4352C27.8912 22.1504 27.4873 22.0431 27.1177 22.1601C26.7481 22.277 26.4794 22.5971 26.4281 22.9814L27.4194 23.1135ZM33.2117 18.1664C32.9781 17.6659 32.3831 17.4496 31.8826 17.6831C31.3821 17.9167 31.1658 18.5117 31.3993 19.0122L33.2117 18.1664ZM6.6944 44.6002L11.2186 10.5781L9.23606 10.3144L4.71185 44.3365L6.6944 44.6002ZM11.1529 10.8249C11.5633 9.82164 11.9101 9.01129 12.2744 8.38454C12.6407 7.75432 12.9612 7.4249 13.2589 7.26798C13.5177 7.13154 13.8832 7.06039 14.5146 7.24329C15.1749 7.43459 16.0575 7.88698 17.2513 8.72966L18.4047 7.09572C17.1373 6.2011 16.0429 5.60382 15.0711 5.32229C14.0703 5.03235 13.1487 5.06518 12.3262 5.49875C11.5426 5.91184 10.9877 6.61844 10.5453 7.37944C10.1009 8.14393 9.70577 9.08002 9.30178 10.0676L11.1529 10.8249ZM32.0261 10.6049C32.2915 8.95347 32.8294 6.53087 33.5686 4.61734C33.9421 3.6505 34.3378 2.89185 34.7249 2.42512C35.1261 1.9413 35.3045 2.00185 35.3204 2.00583L35.8055 0.0655483C34.6632 -0.220014 33.7648 0.44981 33.1854 1.14834C32.5919 1.86397 32.1031 2.86075 31.7029 3.89667C30.8948 5.98866 30.3289 8.56088 30.0514 10.2876L32.0261 10.6049ZM35.3204 2.00583C35.5068 2.05243 35.8746 2.22219 36.4334 2.60125C36.9704 2.9655 37.6161 3.47602 38.3455 4.12433C39.8028 5.41975 41.5497 7.22564 43.3675 9.41134C47.0067 13.7873 50.8763 19.6209 53.2697 25.826L55.1357 25.1062C52.6429 18.6435 48.6404 12.6238 44.9052 8.1325C43.0357 5.88456 41.2197 4.00331 39.6742 2.6295C38.9021 1.94321 38.1863 1.3736 37.5562 0.946131C36.9478 0.533467 36.343 0.199921 35.8055 0.0655483L35.3204 2.00583ZM53.2697 25.826C55.6999 32.1264 56.2339 36.048 55.6482 38.613C55.0918 41.0502 53.4748 42.4394 50.9097 43.5507L51.7047 45.3859C54.5686 44.1452 56.8425 42.3672 57.5981 39.0582C58.3244 35.8771 57.5917 31.4736 55.1357 25.1062L53.2697 25.826ZM50.9097 43.5507C49.5996 44.1183 48.5039 44.4235 47.6246 44.4467C46.7834 44.469 46.1856 44.2365 45.7303 43.7439C45.2391 43.2124 44.8037 42.2594 44.5877 40.6215C44.3731 38.9954 44.3884 36.7983 44.7008 33.8977L42.7123 33.6836C42.3913 36.6644 42.3613 39.0368 42.6048 40.8831C42.8468 42.7176 43.3728 44.1397 44.2615 45.1013C45.1862 46.1018 46.3867 46.4802 47.6775 46.446C48.9303 46.4129 50.3003 45.9944 51.7047 45.3859L50.9097 43.5507ZM44.7008 33.8977C45.3382 27.979 45.9633 22.679 47.2515 19.0111C47.8942 17.1811 48.6618 15.8819 49.5708 15.1101C50.43 14.3806 51.4885 14.0581 52.9357 14.3247L53.298 12.3578C51.3068 11.9909 49.6283 12.4376 48.2763 13.5856C46.974 14.6913 46.0564 16.3781 45.3644 18.3484C43.9833 22.2812 43.3416 27.8394 42.7123 33.6836L44.7008 33.8977ZM54.0231 13.7641C55.238 11.161 57.2848 8.20129 59.9061 5.90496C62.5281 3.60806 65.6511 2.0357 69.0421 2.03569L69.0421 0.0356908C65.0134 0.0356998 61.4406 1.90184 58.5883 4.40057C55.7353 6.89986 53.5294 10.0929 52.2107 12.9183L54.0231 13.7641ZM17.0281 8.51279C17.5917 9.26405 17.927 9.64748 18.3103 10.0983C18.6832 10.537 19.1227 11.064 19.9235 12.1317L21.5235 10.9317C20.6956 9.82776 20.2302 9.26893 19.8341 8.80291C19.4482 8.34896 19.1502 8.00871 18.6279 7.31259L17.0281 8.51279ZM20.7235 12.5317C24.7839 12.5317 28.9486 11.9448 31.2595 11.4216L30.8179 9.47094C28.6423 9.96352 24.6258 10.5317 20.7235 10.5317V12.5317ZM69.0421 2.03569C71.3665 2.03563 74.7652 2.17939 77.8474 4.2619C80.8903 6.31784 83.8192 10.4045 84.8802 18.7159L86.8641 18.4627C85.7535 9.763 82.62 5.07284 78.9671 2.60471C75.3535 0.163153 71.4229 0.0356316 69.0421 0.0356908L69.0421 2.03569ZM85.9601 19.5854C89.0424 19.3135 91.1703 19.1181 92.6021 18.9976C93.3179 18.9374 93.8484 18.8969 94.2305 18.8751C94.4216 18.8642 94.568 18.8584 94.6775 18.8568C94.732 18.856 94.7734 18.8563 94.804 18.8572C94.8358 18.8581 94.8481 18.8595 94.8464 18.8593L95.0673 16.8715C94.8345 16.8457 94.4999 16.8565 94.1166 16.8784C93.7059 16.9018 93.1528 16.9442 92.4344 17.0047C90.9979 17.1255 88.8549 17.3222 85.7843 17.5932L85.9601 19.5854ZM94.8464 18.8593C94.7266 18.846 94.6979 18.8131 94.789 18.8613C94.8544 18.8959 94.9537 18.9583 95.0743 19.0551C95.3144 19.2479 95.6087 19.5534 95.8683 19.986C96.374 20.8289 96.7871 22.2206 96.2988 24.3367L98.2476 24.7864C98.8451 22.1971 98.3715 20.2708 97.5833 18.9571C97.1959 18.3114 96.7415 17.8289 96.3267 17.4958C96.1198 17.3296 95.9152 17.1945 95.7245 17.0936C95.5596 17.0064 95.3228 16.8999 95.0673 16.8715L94.8464 18.8593ZM79.8264 41.4802C76.9966 41.6898 74.388 39.8134 72.0045 37.0152C69.6406 34.2401 67.7569 30.8778 66.265 28.5467L64.5805 29.6248C65.9841 31.818 68.0003 35.3987 70.482 38.3121C72.9439 41.2023 76.1263 43.7597 79.9741 43.4747L79.8264 41.4802ZM79.9002 42.4774C79.2163 43.207 79.2162 43.2068 79.216 43.2067C79.216 43.2067 79.2159 43.2066 79.2158 43.2065C79.2157 43.2064 79.2156 43.2064 79.2156 43.2063C79.2156 43.2063 79.2157 43.2064 79.216 43.2067C79.2166 43.2072 79.2179 43.2085 79.2198 43.2103C79.2237 43.214 79.2303 43.2203 79.2394 43.2291C79.2577 43.2467 79.2861 43.2743 79.3238 43.3116C79.3991 43.3863 79.511 43.4995 79.6516 43.6482C79.9331 43.9457 80.3278 44.3835 80.7722 44.9363C81.665 46.0469 82.7385 47.597 83.5053 49.3862L85.3436 48.5984C84.4817 46.5872 83.293 44.8799 82.3309 43.6832C81.8479 43.0823 81.4169 42.604 81.1046 42.2737C80.9483 42.1085 80.8213 41.98 80.7319 41.8913C80.6872 41.847 80.6518 41.8126 80.6269 41.7886C80.6144 41.7766 80.6045 41.7671 80.5974 41.7603C80.5938 41.7569 80.5909 41.7542 80.5887 41.7521C80.5876 41.7511 80.5866 41.7502 80.5859 41.7495C80.5855 41.7492 80.5852 41.7488 80.5849 41.7486C80.5848 41.7484 80.5846 41.7483 80.5845 41.7482C80.5843 41.748 80.5842 41.7479 79.9002 42.4774ZM83.7939 49.7684C85.5233 51.1734 87.4413 51.3062 88.9557 50.5228C90.4204 49.7651 91.3964 48.2001 91.3964 46.4587H89.3964C89.3964 47.4559 88.8342 48.3339 88.0368 48.7464C87.289 49.1332 86.2211 49.1635 85.055 48.2161L83.7939 49.7684ZM87.3807 39.468C85.5079 40.4986 83.0719 41.2397 79.8264 41.4802L79.9741 43.4747C83.4503 43.2172 86.1758 42.4139 88.345 41.2202L87.3807 39.468ZM91.3964 46.4587C91.3964 45.4317 91.3521 44.4912 90.9492 43.4069C90.5549 42.3456 89.8442 41.2165 88.643 39.7185L87.0827 40.9697C88.2341 42.4055 88.7902 43.3385 89.0745 44.1035C89.3502 44.8455 89.3964 45.4954 89.3964 46.4587H91.3964ZM69.0421 25.1903C67.4526 25.1903 64.446 26.4146 62.8607 30.5365L64.7274 31.2544C66.0375 27.848 68.3394 27.1903 69.0421 27.1903V25.1903ZM80.0949 43.4583L83.8952 42.7042L83.5059 40.7424L79.7056 41.4966L80.0949 43.4583ZM84.0151 42.6725L88.1774 41.2934L87.5483 39.3949L83.386 40.774L84.0151 42.6725ZM87.5882 29.031C87.5036 30.5733 87.0279 33.0936 86.2144 35.4969C85.8093 36.6935 85.3293 37.8346 84.7886 38.7955C84.2417 39.7674 83.6664 40.4941 83.0963 40.9265L84.3049 42.52C85.1825 41.8544 85.9192 40.8646 86.5316 39.7763C87.1502 38.677 87.6769 37.4143 88.1088 36.1382C88.9693 33.5961 89.4889 30.8957 89.5852 29.1406L87.5882 29.031ZM96.2988 24.3367C95.6935 26.9601 94.9881 28.4007 94.024 30.8968L95.8897 31.6174C96.8085 29.2387 97.6003 27.5915 98.2476 24.7864L96.2988 24.3367ZM94.024 30.8968C92.7302 34.2463 91.0299 37.4598 87.3807 39.468L88.345 41.2202C92.6246 38.8651 94.545 35.0986 95.8897 31.6174L94.024 30.8968ZM21.3554 21.2241C21.289 22.0549 21.3223 23.3288 21.6812 24.4392C22.0335 25.5292 22.8511 26.8283 24.5239 26.8283V24.8283C24.1698 24.8283 23.8413 24.6193 23.5843 23.8241C23.3339 23.0493 23.2949 22.0609 23.349 21.3836L21.3554 21.2241ZM24.5239 26.8283C25.8815 26.8283 26.8477 26.2044 27.4653 25.4374C28.056 24.7039 28.3308 23.844 28.4106 23.2457L26.4281 22.9814C26.3872 23.288 26.2277 23.7855 25.9076 24.1831C25.6142 24.5473 25.193 24.8283 24.5239 24.8283V26.8283ZM26.6845 23.7918C27.081 24.2213 27.7439 24.8553 28.4755 25.3908C28.8419 25.659 29.2462 25.9178 29.6591 26.1129C30.0605 26.3026 30.5403 26.4661 31.0387 26.4661V24.4661C30.9581 24.4661 30.7864 24.4336 30.5137 24.3047C30.2525 24.1812 29.96 23.9989 29.6568 23.777C29.0493 23.3322 28.4816 22.7899 28.1542 22.4352L26.6845 23.7918ZM31.0387 26.4661C31.9085 26.4661 32.51 25.8546 32.8601 25.3242C33.2351 24.7563 33.5041 24.0234 33.6681 23.2541C33.9938 21.7258 33.9614 19.7729 33.2117 18.1664L31.3993 19.0122C31.9164 20.1202 31.9745 21.6058 31.712 22.8372C31.5819 23.4478 31.3872 23.9251 31.191 24.2224C30.9699 24.5573 30.8928 24.4661 31.0387 24.4661V26.4661Z" fill="white"/>
<ellipse cx="16.2031" cy="23.4746" rx="1.44775" ry="3.07647" transform="rotate(-7.55708 16.2031 23.4746)" fill="white"/>
<ellipse cx="39.0312" cy="19.2968" rx="1.44775" ry="3.07647" transform="rotate(-7.55708 39.0312 19.2968)" fill="white"/>
<path d="M1 28.0002C4.13679 27.7589 11.0257 28.1087 13.4868 31.4386" stroke="white" stroke-width="2" stroke-linecap="round"/>
<path d="M1.72656 35.9632C4.01883 34.3948 9.47202 32.4886 12.9466 37.4109" stroke="white" stroke-width="2" stroke-linecap="round"/>
<ellipse cx="66.3305" cy="13.161" rx="1.99065" ry="3.98131" fill="white"/>
<ellipse cx="76.8227" cy="13.161" rx="1.99065" ry="3.98131" fill="white"/>
<circle cx="78.9972" cy="31.0773" r="1.26678" fill="white"/>
<circle cx="77.9074" cy="35.4211" r="1.26678" fill="white"/>
<circle cx="82.2551" cy="34.3332" r="1.26678" fill="white"/>
<path d="M86.7796 31.6195H94.5613L96.9138 23.6569V20.3995L94.5613 18.5898L81.3506 20.3995V26.3714C81.3506 29.7012 84.9699 31.2576 86.7796 31.6195Z" fill="white"/>
<path d="M87.3225 46.8209C87.3225 45.2525 85.6938 42.3329 84.246 41.7538M72.6641 20.3995C75.7405 19.8566 88.0464 18.9517 95.4661 18.0469M94.5613 31.6195H86.7796C84.9699 31.2576 81.3506 29.7012 81.3506 26.3714C81.3506 23.0416 81.3506 21.0027 81.3506 20.3995L94.5613 18.5898L96.9138 20.3995V23.6569L94.5613 31.6195Z" stroke="white" stroke-width="2" stroke-linecap="round"/>
<path d="M105.48 26L110.22 14.705H110.31L115.035 26H113.37L109.83 16.985L110.865 16.31L106.905 26H105.48ZM108.255 21.89H112.29L112.77 23.15H107.835L108.255 21.89ZM117.078 26V15.155H120.033C121.103 15.155 122.013 15.32 122.763 15.65C123.523 15.98 124.133 16.415 124.593 16.955C125.053 17.495 125.388 18.095 125.598 18.755C125.818 19.405 125.928 20.055 125.928 20.705C125.928 21.525 125.783 22.26 125.493 22.91C125.213 23.56 124.823 24.115 124.323 24.575C123.823 25.035 123.248 25.39 122.598 25.64C121.958 25.88 121.278 26 120.558 26H117.078ZM118.533 24.605H120.273C120.873 24.605 121.423 24.515 121.923 24.335C122.433 24.155 122.873 23.895 123.243 23.555C123.623 23.215 123.918 22.8 124.128 22.31C124.338 21.81 124.443 21.245 124.443 20.615C124.443 19.945 124.333 19.36 124.113 18.86C123.893 18.35 123.593 17.925 123.213 17.585C122.833 17.245 122.403 16.99 121.923 16.82C121.443 16.64 120.938 16.55 120.408 16.55H118.533V24.605ZM127.697 20.585C127.697 19.835 127.837 19.13 128.117 18.47C128.407 17.8 128.807 17.21 129.317 16.7C129.827 16.18 130.412 15.775 131.072 15.485C131.742 15.185 132.462 15.035 133.232 15.035C133.992 15.035 134.702 15.185 135.362 15.485C136.032 15.775 136.622 16.18 137.132 16.7C137.652 17.21 138.057 17.8 138.347 18.47C138.637 19.13 138.782 19.835 138.782 20.585C138.782 21.355 138.637 22.075 138.347 22.745C138.057 23.415 137.652 24.005 137.132 24.515C136.622 25.015 136.032 25.41 135.362 25.7C134.702 25.98 133.992 26.12 133.232 26.12C132.462 26.12 131.742 25.98 131.072 25.7C130.412 25.42 129.827 25.03 129.317 24.53C128.807 24.03 128.407 23.445 128.117 22.775C127.837 22.105 127.697 21.375 127.697 20.585ZM129.197 20.6C129.197 21.17 129.302 21.705 129.512 22.205C129.722 22.695 130.012 23.13 130.382 23.51C130.752 23.89 131.182 24.19 131.672 24.41C132.162 24.62 132.692 24.725 133.262 24.725C133.822 24.725 134.347 24.62 134.837 24.41C135.327 24.19 135.752 23.89 136.112 23.51C136.472 23.13 136.757 22.695 136.967 22.205C137.177 21.705 137.282 21.165 137.282 20.585C137.282 20.015 137.177 19.48 136.967 18.98C136.757 18.47 136.467 18.025 136.097 17.645C135.727 17.265 135.297 16.97 134.807 16.76C134.317 16.54 133.792 16.43 133.232 16.43C132.662 16.43 132.132 16.54 131.642 16.76C131.152 16.98 130.722 17.28 130.352 17.66C129.982 18.04 129.697 18.485 129.497 18.995C129.297 19.495 129.197 20.03 129.197 20.6ZM144.128 15.155C144.918 15.155 145.593 15.29 146.153 15.56C146.713 15.82 147.143 16.2 147.443 16.7C147.753 17.2 147.908 17.805 147.908 18.515C147.908 18.945 147.843 19.37 147.713 19.79C147.583 20.2 147.373 20.575 147.083 20.915C146.803 21.245 146.433 21.51 145.973 21.71C145.513 21.91 144.953 22.01 144.293 22.01H142.688V26H141.233V15.155H144.128ZM144.278 20.615C144.708 20.615 145.063 20.545 145.343 20.405C145.623 20.265 145.843 20.09 146.003 19.88C146.163 19.66 146.278 19.43 146.348 19.19C146.418 18.95 146.453 18.735 146.453 18.545C146.453 18.325 146.418 18.1 146.348 17.87C146.278 17.63 146.158 17.415 145.988 17.225C145.828 17.025 145.613 16.865 145.343 16.745C145.083 16.615 144.758 16.55 144.368 16.55H142.688V20.615H144.278ZM149.359 15.155H156.559V16.55H153.649V26H152.194V16.55H149.359V15.155ZM158.87 15.155H165.92V16.55H160.325V19.85H165.32V21.245H160.325V24.605H166.13V26H158.87V15.155ZM174.706 22.16C174.706 22.65 174.821 23.09 175.051 23.48C175.291 23.86 175.606 24.16 175.996 24.38C176.386 24.6 176.826 24.71 177.316 24.71C177.826 24.71 178.281 24.6 178.681 24.38C179.081 24.16 179.396 23.86 179.626 23.48C179.856 23.09 179.971 22.65 179.971 22.16V15.155H181.396V22.205C181.396 22.995 181.211 23.685 180.841 24.275C180.481 24.865 179.991 25.32 179.371 25.64C178.761 25.96 178.076 26.12 177.316 26.12C176.556 26.12 175.871 25.96 175.261 25.64C174.651 25.32 174.166 24.865 173.806 24.275C173.446 23.685 173.266 22.995 173.266 22.205V15.155H174.706V22.16ZM193.763 26.345L185.378 17.84L185.798 17.945L185.828 26H184.373V14.825H184.448L192.743 23.36L192.398 23.285L192.368 15.155H193.808V26.345H193.763ZM113.255 37.298C113.099 37.402 112.887 37.519 112.618 37.649C112.349 37.779 112.033 37.8873 111.669 37.974C111.314 38.0607 110.924 38.104 110.499 38.104C109.771 38.0953 109.112 37.9653 108.523 37.714C107.942 37.4627 107.448 37.1203 107.041 36.687C106.634 36.2537 106.317 35.7553 106.092 35.192C105.875 34.62 105.767 34.0133 105.767 33.372C105.767 32.67 105.88 32.0243 106.105 31.435C106.339 30.837 106.664 30.3213 107.08 29.888C107.496 29.446 107.986 29.1037 108.549 28.861C109.121 28.6183 109.745 28.497 110.421 28.497C110.984 28.497 111.496 28.575 111.955 28.731C112.414 28.8783 112.809 29.056 113.138 29.264L112.631 30.434C112.371 30.2607 112.055 30.096 111.682 29.94C111.318 29.784 110.911 29.706 110.46 29.706C110.001 29.706 109.567 29.797 109.16 29.979C108.753 30.161 108.393 30.4167 108.081 30.746C107.769 31.0753 107.522 31.461 107.34 31.903C107.167 32.3363 107.08 32.8043 107.08 33.307C107.08 33.8183 107.158 34.295 107.314 34.737C107.479 35.1703 107.708 35.5473 108.003 35.868C108.306 36.1887 108.67 36.44 109.095 36.622C109.52 36.804 109.996 36.895 110.525 36.895C111.002 36.895 111.426 36.8213 111.799 36.674C112.172 36.5267 112.479 36.362 112.722 36.18L113.255 37.298ZM114.793 33.307C114.793 32.657 114.915 32.046 115.157 31.474C115.409 30.8933 115.755 30.382 116.197 29.94C116.639 29.4893 117.146 29.1383 117.718 28.887C118.299 28.627 118.923 28.497 119.59 28.497C120.249 28.497 120.864 28.627 121.436 28.887C122.017 29.1383 122.528 29.4893 122.97 29.94C123.421 30.382 123.772 30.8933 124.023 31.474C124.275 32.046 124.4 32.657 124.4 33.307C124.4 33.9743 124.275 34.5983 124.023 35.179C123.772 35.7597 123.421 36.271 122.97 36.713C122.528 37.1463 122.017 37.4887 121.436 37.74C120.864 37.9827 120.249 38.104 119.59 38.104C118.923 38.104 118.299 37.9827 117.718 37.74C117.146 37.4973 116.639 37.1593 116.197 36.726C115.755 36.2927 115.409 35.7857 115.157 35.205C114.915 34.6243 114.793 33.9917 114.793 33.307ZM116.093 33.32C116.093 33.814 116.184 34.2777 116.366 34.711C116.548 35.1357 116.8 35.5127 117.12 35.842C117.441 36.1713 117.814 36.4313 118.238 36.622C118.663 36.804 119.122 36.895 119.616 36.895C120.102 36.895 120.557 36.804 120.981 36.622C121.406 36.4313 121.774 36.1713 122.086 35.842C122.398 35.5127 122.645 35.1357 122.827 34.711C123.009 34.2777 123.1 33.8097 123.1 33.307C123.1 32.813 123.009 32.3493 122.827 31.916C122.645 31.474 122.394 31.0883 122.073 30.759C121.753 30.4297 121.38 30.174 120.955 29.992C120.531 29.8013 120.076 29.706 119.59 29.706C119.096 29.706 118.637 29.8013 118.212 29.992C117.788 30.1827 117.415 30.4427 117.094 30.772C116.774 31.1013 116.527 31.487 116.353 31.929C116.18 32.3623 116.093 32.826 116.093 33.32ZM126.525 38V28.302H126.538L131.465 35.296L130.932 35.192L135.846 28.302H135.872V38H134.624V31.162L134.702 31.799L131.153 36.817H131.127L127.526 31.799L127.747 31.214V38H126.525ZM141.082 28.601C141.766 28.601 142.351 28.718 142.837 28.952C143.322 29.1773 143.695 29.5067 143.955 29.94C144.223 30.3733 144.358 30.8977 144.358 31.513C144.358 31.8857 144.301 32.254 144.189 32.618C144.076 32.9733 143.894 33.2983 143.643 33.593C143.4 33.879 143.079 34.1087 142.681 34.282C142.282 34.4553 141.797 34.542 141.225 34.542H139.834V38H138.573V28.601H141.082ZM141.212 33.333C141.584 33.333 141.892 33.2723 142.135 33.151C142.377 33.0297 142.568 32.878 142.707 32.696C142.845 32.5053 142.945 32.306 143.006 32.098C143.066 31.89 143.097 31.7037 143.097 31.539C143.097 31.3483 143.066 31.1533 143.006 30.954C142.945 30.746 142.841 30.5597 142.694 30.395C142.555 30.2217 142.369 30.083 142.135 29.979C141.909 29.8663 141.628 29.81 141.29 29.81H139.834V33.333H141.212ZM144.467 38L148.575 28.211H148.653L152.748 38H151.305L148.237 30.187L149.134 29.602L145.702 38H144.467ZM146.872 34.438H150.369L150.785 35.53H146.508L146.872 34.438ZM161.521 37.194C161.391 37.3067 161.209 37.4193 160.975 37.532C160.741 37.636 160.481 37.7313 160.195 37.818C159.917 37.9047 159.627 37.974 159.324 38.026C159.029 38.078 158.752 38.104 158.492 38.104C157.738 38.104 157.057 37.987 156.451 37.753C155.853 37.519 155.337 37.194 154.904 36.778C154.479 36.362 154.15 35.8723 153.916 35.309C153.69 34.7457 153.578 34.1347 153.578 33.476C153.578 32.696 153.703 31.9983 153.955 31.383C154.215 30.759 154.566 30.2347 155.008 29.81C155.458 29.3767 155.974 29.0517 156.555 28.835C157.135 28.6097 157.751 28.497 158.401 28.497C158.947 28.497 159.454 28.562 159.922 28.692C160.39 28.822 160.801 28.9867 161.157 29.186L160.728 30.343C160.554 30.239 160.338 30.1437 160.078 30.057C159.826 29.9703 159.566 29.901 159.298 29.849C159.029 29.7883 158.778 29.758 158.544 29.758C157.989 29.758 157.486 29.8447 157.036 30.018C156.585 30.1827 156.199 30.4253 155.879 30.746C155.558 31.058 155.311 31.4393 155.138 31.89C154.964 32.332 154.878 32.8303 154.878 33.385C154.878 33.8963 154.964 34.3643 155.138 34.789C155.311 35.2137 155.558 35.582 155.879 35.894C156.199 36.1973 156.581 36.4357 157.023 36.609C157.473 36.7737 157.967 36.856 158.505 36.856C158.825 36.856 159.142 36.8257 159.454 36.765C159.766 36.6957 160.034 36.6003 160.26 36.479V34.607H158.388V33.398H161.521V37.194ZM172.063 38.299L164.796 30.928L165.16 31.019L165.186 38H163.925V28.315H163.99L171.179 35.712L170.88 35.647L170.854 28.601H172.102V38.299H172.063ZM174.22 33.307C174.22 32.657 174.341 32.046 174.584 31.474C174.835 30.8933 175.182 30.382 175.624 29.94C176.066 29.4893 176.573 29.1383 177.145 28.887C177.726 28.627 178.35 28.497 179.017 28.497C179.676 28.497 180.291 28.627 180.863 28.887C181.444 29.1383 181.955 29.4893 182.397 29.94C182.848 30.382 183.199 30.8933 183.45 31.474C183.701 32.046 183.827 32.657 183.827 33.307C183.827 33.9743 183.701 34.5983 183.45 35.179C183.199 35.7597 182.848 36.271 182.397 36.713C181.955 37.1463 181.444 37.4887 180.863 37.74C180.291 37.9827 179.676 38.104 179.017 38.104C178.35 38.104 177.726 37.9827 177.145 37.74C176.573 37.4973 176.066 37.1593 175.624 36.726C175.182 36.2927 174.835 35.7857 174.584 35.205C174.341 34.6243 174.22 33.9917 174.22 33.307ZM175.52 33.32C175.52 33.814 175.611 34.2777 175.793 34.711C175.975 35.1357 176.226 35.5127 176.547 35.842C176.868 36.1713 177.24 36.4313 177.665 36.622C178.09 36.804 178.549 36.895 179.043 36.895C179.528 36.895 179.983 36.804 180.408 36.622C180.833 36.4313 181.201 36.1713 181.513 35.842C181.825 35.5127 182.072 35.1357 182.254 34.711C182.436 34.2777 182.527 33.8097 182.527 33.307C182.527 32.813 182.436 32.3493 182.254 31.916C182.072 31.474 181.821 31.0883 181.5 30.759C181.179 30.4297 180.807 30.174 180.382 29.992C179.957 29.8013 179.502 29.706 179.017 29.706C178.523 29.706 178.064 29.8013 177.639 29.992C177.214 30.1827 176.842 30.4427 176.521 30.772C176.2 31.1013 175.953 31.487 175.78 31.929C175.607 32.3623 175.52 32.826 175.52 33.32ZM194.09 38.299L186.823 30.928L187.187 31.019L187.213 38H185.952V28.315H186.017L193.206 35.712L192.907 35.647L192.881 28.601H194.129V38.299H194.09Z" fill="white"/>
</svg>
